<?xml version="1.0" encoding="UTF-8"?>
<svg width="516px" height="142px" viewBox="0 0 516 142" version="1.1" xmlns="http://www.w3.org/2000/svg" xmlns:xlink="http://www.w3.org/1999/xlink">
    <!-- Generator: Sketch 60.1 (88133) - https://sketch.com -->
    <title>Group</title>
    <desc>Created with Sketch.</desc>
    <g id="Page-1" stroke="none" stroke-width="1" fill="none" fill-rule="evenodd">
        <g id="Group">
            <path d="M268.156,24.038 C268.236,22.886 269.081,20.304 273.969,20.304 C280.402,20.304 280.477,26.746 280.477,26.811 C280.477,30.666 279.734,32.446 271.8,42.508 C270.907,43.642 269.932,44.88 268.884,46.217 L278.38,46.217 C286.11,36.367 287.941,33.172 287.941,26.811 C287.941,26.233 287.895,25.619 287.806,24.985 C291.606,24.985 292.017,28.731 292.017,30.344 C292.017,34.199 291.274,35.979 283.342,46.041 C283.297,46.098 283.248,46.159 283.203,46.217 L292.651,46.217 C298.097,39.013 299.481,35.876 299.481,30.344 C299.481,24.167 295.827,17.52 287.806,17.52 C286.693,17.52 285.698,17.642 284.806,17.843 C282.587,15.005 279.085,12.839 273.969,12.839 C269.705,12.839 266.64,14.165 264.543,16.025 C264.525,16.01 264.505,15.996 264.488,15.98 C264.488,28.652 264.488,38.726 264.488,46.217 L268.156,46.217 L268.156,24.038 Z M294.352,52.849 C294.351,53.992 294.349,57.208 294.352,59.486 C294.352,60.05 293.895,60.515 293.332,60.515 L264.488,60.515 L264.488,51.831 L293.332,51.831 C293.895,51.831 294.352,52.286 294.352,52.849 L294.352,52.849 Z" id="Fill-1" fill="#679194"></path>
            <path d="M264.514,0.003 C264.514,0.002 264.514,0.001 264.514,0 C264.509,0 264.505,0.001 264.501,0.001 C264.497,0.001 264.493,0 264.489,0 C264.489,0.001 264.489,0.002 264.489,0.003 C261.521,0.059 259.13,2.472 259.13,5.454 C259.13,8.435 261.521,10.848 264.489,10.905 C264.489,10.905 264.489,10.907 264.489,10.908 C264.493,10.908 264.497,10.906 264.501,10.906 C264.505,10.906 264.509,10.908 264.514,10.908 C264.514,10.907 264.514,10.906 264.514,10.906 C267.481,10.848 269.872,8.435 269.872,5.454 C269.872,2.472 267.481,0.059 264.514,0.003" id="Fill-2" fill="#679194"></path>
            <path d="M424.347,88.177 C423.334,88.177 422.596,87.348 422.596,86.426 L422.596,78.999 C422.596,78.078 423.334,77.248 424.347,77.248 L464.62,77.248 C465.634,77.248 466.371,78.078 466.371,78.999 L466.371,86.426 C466.371,87.348 465.634,88.177 464.62,88.177 L424.347,88.177" id="Fill-3" fill="#74C6C7"></path>
            <path d="M373.453,88.177 C372.44,88.177 371.702,87.348 371.702,86.426 L371.702,78.999 C371.702,78.078 372.44,77.248 373.453,77.248 L413.727,77.248 C414.74,77.248 415.477,78.078 415.477,78.999 L415.477,86.426 C415.477,87.348 414.74,88.177 413.727,88.177 L373.453,88.177" id="Fill-4" fill="#74C6C7"></path>
            <path d="M334.816,76.665 C334.791,76.665 334.767,76.666 334.742,76.666 L334.742,88.43 C334.767,88.43 334.791,88.426 334.816,88.426 C346.215,88.426 355.624,97.926 355.624,109.326 C355.624,120.726 346.215,130.044 334.816,130.044 C334.791,130.044 334.767,130.041 334.742,130.04 L334.742,141.803 C334.767,141.804 334.791,141.805 334.816,141.805 C352.91,141.805 367.385,127.42 367.385,109.326 C367.385,91.231 352.91,76.665 334.816,76.665 Z M296.404,130.257 L272.955,130.257 L272.955,141.224 L296.404,141.224 C297.409,141.224 298.141,140.401 298.141,139.487 L298.141,131.993 C298.141,131.079 297.409,130.257 296.404,130.257 Z M237.805,116.119 L225.052,116.119 L237.237,140.397 C237.421,140.765 237.88,141.224 238.707,141.224 L248.348,141.224 C249.91,141.224 250.553,139.755 249.91,138.561 L237.805,116.119 Z M120.378,77.247 L111.969,77.247 C110.964,77.247 110.232,78.069 110.232,78.983 L110.232,103.203 L95.748,103.203 L95.748,114.262 L110.232,114.262 L110.232,139.487 C110.232,140.401 110.964,141.224 111.969,141.224 L120.378,141.224 C121.291,141.224 122.114,140.401 122.114,139.487 L122.114,78.983 C122.114,78.069 121.291,77.247 120.378,77.247 Z M511.018,112.525 L511.018,104.939 C511.018,104.026 510.194,103.203 509.281,103.203 L486.762,103.203 L486.762,114.262 L509.281,114.262 C510.194,114.262 511.018,113.53 511.018,112.525 Z M513.76,77.247 L486.762,77.247 L486.762,88.214 L513.76,88.214 C514.766,88.214 515.496,87.392 515.496,86.477 L515.496,78.983 C515.496,78.069 514.766,77.247 513.76,77.247 Z M513.76,130.257 L486.762,130.257 L486.762,141.224 L513.76,141.224 C514.766,141.224 515.496,140.401 515.496,139.487 L515.496,131.993 C515.496,131.079 514.766,130.257 513.76,130.257 Z M168.547,85.724 L162.478,99.273 L171.746,119.38 L153.473,119.38 L148.929,129.525 L176.225,129.525 L180.703,139.396 C181.343,140.676 181.982,141.224 183.354,141.224 L191.305,141.224 C192.676,141.224 193.406,140.036 192.858,138.848 L168.547,85.724 L168.547,85.724 Z" id="Fill-5" fill="#679194"></path>
            <path d="M49.436,124.841 C48.89,124.295 47.889,124.204 47.16,124.841 C43.335,127.937 38.692,130.03 33.23,130.03 C32.656,130.03 32.082,130.007 31.51,129.959 C30.946,129.913 30.385,129.843 29.828,129.749 C29.281,129.657 28.737,129.542 28.199,129.405 C27.669,129.269 27.145,129.112 26.627,128.933 C26.116,128.756 25.612,128.558 25.117,128.34 C24.626,128.123 24.145,127.887 23.673,127.631 C23.204,127.377 22.746,127.104 22.299,126.812 C21.854,126.523 21.42,126.215 21,125.891 C20.58,125.567 20.172,125.226 19.779,124.871 C19.386,124.516 19.007,124.144 18.643,123.76 C18.278,123.374 17.928,122.975 17.594,122.563 C17.259,122.15 16.939,121.724 16.637,121.286 C16.334,120.847 16.047,120.397 15.777,119.936 C15.507,119.473 15.254,119 15.019,118.518 C14.783,118.033 14.564,117.539 14.366,117.039 C14.165,116.534 13.984,116.021 13.823,115.503 C13.66,114.98 13.517,114.451 13.394,113.918 C13.27,113.379 13.166,112.835 13.083,112.289 C13,111.736 12.938,111.18 12.896,110.622 C12.875,110.326 12.854,110.03 12.842,109.733 C12.83,109.436 12.828,109.142 12.828,108.846 L0.011,108.846 C0.009,108.989 0,109.13 0,109.273 C0,127.481 14.658,141.956 32.866,141.956 C40.968,141.956 48.799,139.134 54.989,133.126 C55.626,132.489 55.809,131.305 55.08,130.668 L49.436,124.841" id="Fill-6" fill="#679194"></path>
            <path d="M235.67,51.831 L268.21,51.831 L268.21,60.515 L235.67,60.515 C235.107,60.515 234.65,60.05 234.650998,59.486 C234.653,57.208 234.652,53.993 234.650998,52.849 C234.65,52.286 235.107,51.831 235.67,51.831" id="Fill-7" fill="#74C6C7"></path>
            <path d="M248.526,26.811 C248.526,26.746 248.601,20.304 255.033,20.304 C259.921,20.304 260.766,22.886 260.847,24.038 L260.847,46.217 L268.231,46.217 C268.231,40.795 268.18,33.251 268.18,24.66 C268.18,21.528 267.055,18.778 264.515,15.98 C264.498,15.996 264.477,16.01 264.459,16.026 C262.363,14.165 259.297,12.839 255.033,12.839 C249.918,12.839 246.416,15.005 244.197,17.843 C243.305,17.642 242.31,17.52 241.197,17.52 C233.175,17.52 229.521,24.167 229.521,30.343 C229.521,35.876 230.905,39.013 236.352,46.217 L245.799,46.217 C245.754,46.159 245.705,46.098 245.661,46.041 C237.728,35.979 236.986,34.199 236.986,30.343 C236.986,28.731 237.396,24.985 241.197,24.985 C241.107,25.619 241.061,26.233 241.061,26.811 C241.061,33.172 242.892,36.367 250.622,46.217 L260.119,46.217 C259.07,44.88 258.096,43.642 257.202,42.508 C249.268,32.446 248.526,30.666 248.526,26.811" id="Fill-8" fill="#74C6C7"></path>
            <path d="M12.711,108.846 L12.828,108.846 C13.116,97.653 21.621,88.261 33.052,88.261 C38.141,88.261 43.229,90.259 47.045,93.622 C47.772,94.348 48.68,94.348 49.317,93.622 L54.859,87.897 C55.586,87.17 55.586,86.08 54.768,85.352 C48.589,79.81 41.957,76.902 32.78,76.902 C14.896,76.902 0.465,91.075 0.011,108.846 L12.711,108.846" id="Fill-9" fill="#74C6C7"></path>
            <path d="M229.871,106.423 L215.005,106.423 L215.005,88.276 L229.871,88.276 C234.704,88.276 238.899,92.288 238.899,97.122 C238.899,102.229 234.704,106.423 229.871,106.423 Z M230.874,77.332 L204.791,77.332 C203.788,77.332 203.059,78.152 203.059,79.064 L203.059,139.437 C203.059,140.35 203.788,141.17 204.791,141.17 L213.181,141.17 C214.093,141.17 214.914,140.35 214.914,139.437 L214.914,116.183 L225.037,116.183 L237.795,116.131 C245.73,112.94 250.754,105.33 250.754,96.94 C250.754,86.087 241.816,77.332 230.874,77.332 L230.874,77.332 Z" id="Fill-10" fill="#74C6C7"></path>
            <path d="M163.27,76.525 L162.357,76.525 C161.535,76.525 161.078,76.982 160.805,77.53 L132.482,138.867 C131.935,140.055 132.666,141.241 134.035,141.241 L141.98,141.241 C143.442,141.241 144.264,140.328 144.628,139.415 L168.547,85.726 L164.823,77.53 C164.549,76.982 164.183,76.525 163.27,76.525" id="Fill-11" fill="#74C6C7"></path>
            <path d="M80.439,79.007 C80.439,78.093 79.709,77.271 78.703,77.271 L70.207,77.271 C69.293,77.271 68.472,78.093 68.472,79.007 L68.472,139.484 C68.472,140.398 69.293,141.22 70.207,141.22 L78.703,141.22 C79.709,141.22 80.439,140.398 80.439,139.484 L80.439,114.27 L95.748,114.264 L95.748,103.216 L80.439,103.216 L80.439,79.007" id="Fill-12" fill="#74C6C7"></path>
            <path d="M486.762,77.245 L476.666,77.245 C475.662,77.245 474.933,78.066 474.933,78.979 L474.933,139.494 C474.933,140.406 475.662,141.227 476.666,141.227 L486.762,141.227 L486.762,77.245" id="Fill-13" fill="#74C6C7"></path>
            <path d="M438.679,88.177 L438.679,139.498 C438.679,140.389 439.481,141.189 440.371,141.189 L448.65,141.189 C449.541,141.189 450.342,140.389 450.342,139.498 L450.342,88.177 L438.679,88.177" id="Fill-14" fill="#679194"></path>
            <path d="M271.231,77.248 L262.775,77.248 C261.764,77.248 261.029,78.075 261.029,78.995 L261.029,139.521 C261.029,140.44 261.764,141.268 262.775,141.268 L272.976,141.226 L272.977,78.995 C272.977,78.075 272.15,77.248 271.231,77.248" id="Fill-15" fill="#74C6C7"></path>
            <path d="M302.122,109.329 C302.122,127.423 316.598,141.808 334.691,141.808 C334.716,141.808 334.74,141.806 334.765,141.806 L334.765,130.043 C334.74,130.043 334.716,130.047 334.691,130.047 C323.292,130.047 313.882,120.728 313.882,109.329 C313.882,97.928 323.292,88.429 334.691,88.429 C334.716,88.429 334.74,88.433 334.765,88.433 L334.765,76.669 C334.74,76.669 334.716,76.667 334.691,76.667 C316.598,76.667 302.122,91.234 302.122,109.329" id="Fill-16" fill="#74C6C7"></path>
            <path d="M387.544,88.177 L387.544,139.669 C387.544,140.564 388.35,141.369 389.245,141.369 L397.568,141.369 C398.463,141.369 399.268,140.564 399.268,139.669 L399.268,88.177 L387.544,88.177" id="Fill-17" fill="#679194"></path>
        </g>
    </g>
</svg>